# xmcd
#
# Track frame offsets:
#	150
#	15809
#	30403
#	49107
#	63963
#	76499
#	92783
#	109102
#	121652
#	136863
#	152196
#	167170
#	185007
#	202325
#
# Disc length: 2931 seconds
#
# Revision: 0
# Processed by: cddbd v1.5.1PL0 Copyright (c) Steve Scherf et al.
# Submitted via: dBpowerAMP V4.0
#
DISCID=b10b710e
DTITLE=Sangue Latino - No Baile
DYEAR=2002
DGENRE=Bandas
TTITLE0=No Baile (Ao Vivo)
TTITLE1=Conte Comigo
TTITLE2=O Coração Não Disse Adeus
TTITLE3=Demônio ou Anjo
TTITLE4=Me Perdoe Meu Bem
TTITLE5=Foi Por Amor
TTITLE6=Roupa Suja Se Lava Em Casa
TTITLE7=Em Teus Olhos
TTITLE8=Em Nome do Amor
TTITLE9=Amor Adolescente
TTITLE10=Secretária Eficiente
TTITLE11=Pensando em Ti
TTITLE12=Beijar é Bom
TTITLE13=Por Causa do Meu Chinela
EXTD=
EXTT0=
EXTT1=
EXTT2=
EXTT3=
EXTT4=
EXTT5=
EXTT6=
EXTT7=
EXTT8=
EXTT9=
EXTT10=
EXTT11=
EXTT12=
EXTT13=
PLAYORDER=
